# xmcd
#
# Track frame offsets:
#	150
#	12365
#	27663
#	40362
#	58604
#	72099
#	85790
#	97780
#	115872
#	130386
#	144054
#
# Disc length: 2110 seconds
#
# Revision: 0
# Processed by: cddbd v1.5.1PL2 Copyright (c) Steve Scherf et al.
# Submitted via: audiograbber 1.83.01
#
DISCID=8b083c0b
DTITLE=Gina Potvin - A Piano Christmas
DYEAR=2005
DGENRE=Gospel
TTITLE0=Joy To The World
TTITLE1=What Child Is This
TTITLE2=How Great Our Joy
TTITLE3=Only The Animals
TTITLE4=O Little Town Of Bethlehem
TTITLE5=Away In A Manger
TTITLE6=Silent Night
TTITLE7=Come Thou Long Expected Jesus
TTITLE8=God's Plan
TTITLE9=Hark The Herald/There's A Song In The Air
TTITLE10=The First Noel
EXTD=
EXTT0=
EXTT1=
EXTT2=
EXTT3=
EXTT4=
EXTT5=
EXTT6=
EXTT7=
EXTT8=
EXTT9=
EXTT10=
PLAYORDER=
